<svg xmlns="http://www.w3.org/2000/svg" viewBox="0 0 1921 695.74"><defs><style>.cls-1{fill:#070707;}</style></defs><g id="Layer_2" data-name="Layer 2"><g id="main"><g id="Layer_3" data-name="Layer 3"><path class="cls-1" d="M1919,.14c-25.46-3.66-44.92,67.66-130,30.53-49.52-21.62-129.06-16.19-258,91.84-126.66,106.12-155.51,58.86-236,49.69-91-10.37-240-147.83-409-103.53-76.54,20.06-152,28.8-290,73.71-143,46.54-125,56.69-303.55-5.23C188.42,101.06,32.36,268.81,2,154.51c-.35-1.33-1.95-1-1.95.36L2,695.74a1.17,1.17,0,0,1,.86-1.21c87.66-14.83,218.34-76,356.68-103.74,235.27-47.24,321.73,22.89,449.43-26.6,148.37-57.5,467.8,230,619.1,72.2,85.72-89.41,167.13,86.31,360.76-76C1839.46,518,1883,411.22,1921,440.65Z"/></g></g></g></svg>