<svg xmlns="http://www.w3.org/2000/svg" viewBox="0 0 357 358.22"><defs><style>.cls-1{fill:#353535;}.cls-2{fill:#fff;}</style></defs><g id="Layer_2" data-name="Layer 2"><g id="main"><g id="logo"><circle class="cls-1" cx="178.5" cy="179.72" r="178.5"/><path class="cls-2" d="M277,102.22c-4.65,3.15-17.92,10.51-21,5l-.84-8.42a8.62,8.62,0,0,1,1.84-.58c1,0,1-4,1-4l-.48-.86c1.54-.89,3.91-.71,7.48,2.86,8,8,14-3,14-3l45-33-1-3c.05-1.53-42.84,31.76-46,30-4.63-2.61-7.86-2-8,0l-5-20-6-8,4-3-.45-.62L264,53.9l3.56-1.2L274,46.22c-1,0-9,3-9,3l-2.18,3.13L260.42,54,258,50.62l16-11.4-7-11s-23,16-26,16.66-2-11.66-2-11.66c-4.85.31-2.26-26.54-3.7-31.13-2.87-9.19-40.86,14.85-40.86,14.85L177.21,45.26c-.23,0-.47,0-.71,0A6.5,6.5,0,0,0,172,56.4l-.44,1.19.46-1.17c.21.19.43.38.66.55h0a7.09,7.09,0,0,0,1,.58h0c.6.24,12,11.64,21.77,21.91-7.72-8.7-16.6-18.34-20.65-21.48a6.8,6.8,0,0,0,1.76.24,6.52,6.52,0,0,0,5-2.36c.11-.14.2-.29.3-.44,1.57,2.41,6.48,8.84,11.8,15.78l-11.68-16A6.4,6.4,0,0,0,183,51.72a6.5,6.5,0,0,0-4.52-6.19L182,41.22l14-19c.47-3,14.71-3.63,22-1,7.75,2.81,12.76,10.35,12.76,10.35L233,50.22s-8,14-8,13-13.17,8.69-13.17,8.69l7.82,10.51-6,4.17c-.14-.23-.24-.39-.31-.49.06.14.14.32.24.53l-1.4,1-.2-.39c.05.13.1.27.17.41l-4,2.81c-3.08-4.33-9-12-14.52-19.24l14.23,19.44-1.43,1c-2.53-3-6.59-7.49-11-12.18,4.3,4.86,8.24,9.41,10.76,12.36L174,114.22l-3-4-2-2-8-8-5-1,15.53-41.64L162.39,80.7l-6.6,18.48-4.79-1-5.43,5H144l-2,4-3.27,5.09v7l5.27,6.87s-21,12-27,18,3,13,3,13l12,4s13.29.28,21,19c7.15,17.35,3.68,28.85.81,35.37l-.39-.17a2,2,0,0,1-.68-.52,4.12,4.12,0,0,0-2.4-1.6l-1.63-1A2,2,0,0,0,146,213l-1.22,2.13-1-1.32-14.51-27.31V182.9l-1.85-.75,1.3-.55-.5-.2-1.36-.55,1.3-.55-2.78-1.13,2.23-.17-2.78-1.13,2.45-.15-2.25-3-2,.08-.24-.45-2.34-3.16.81,2.64-2-1.81,1.73,3.27.07.15-1.75,2.66.14.34-.46-.44-1.94.39-.31-.4L114,175.22l1.22,2.49L113,176.22l2.22,3,.1.13-1.32,2.9.8,1.34-.72.21-.34-.37-3-2.51,1.43,2.37L109.79,182l2.47,2.77.11.12-1.06,3,1.7,2.34-2.77-2,1.59,2.26-2.43-1.12,2.66,2.58.12.12-.11.39-.4-.29-1.86.69-.36-.35-3.21-2.28,1.59,2.26-2.43-1.12,2.66,2.58.12.12-.85,3.07,2.42,2.87.7-2.35.47,3,.67-2.13.47,3,.84-1.14.22,1.45.09.52.83-1.14.31,2,4.18.95L139.12,224l-22.55-13-1.88-3-2,.35.81-1.16-.53.09-1.44.26.81-1.16-3,.52,1.8-1.33-2.95.52,2-1.43-3.51-1.35-1.63,1.12-.44-.25L101,202.62l2.09,1.81-2.62-.5,3.2,1.87.14.08-.07,3.19,3,2.2.11-2.46,1.17,2.77.14-2.24,1.17,2.77.53-1.32.58,1.36.2.49.53-1.32.78,1.85,4.29-.09L138.59,226l-2.74,4.79a1.93,1.93,0,0,0,.52,2.51l.81.61.08.06,2.68,2.25.12.1,2.46,1.75-5.52,9.2,1.52,7H155l-3,6-3.56,7.24a10.82,10.82,0,0,0-5.22,11.12l.78,4.73v12.91l-9.23-7.82L131,293.22c2.88-3,10.68,8.21,10,12-1,5.57-13.5,37-13.5,37l-3.46,8,12,3,39-62s11-15,11.47-14.17a5.28,5.28,0,0,1,0,3.91c-.05.08-.12.2-.2.36a8.41,8.41,0,0,0,1.48,9.42c1.21,1.3,2.25,2.65,2.25,3.48,0,2,3,13-1,10-1.79-1.34-2.53-6-2.53-6L181,295.83v8.61l7,8.78,6,4s-1,39-1,40,14-1,14-1l7-64s3-36,8-37c4-.8-14.11-67.51-21.23-93.13a17.79,17.79,0,0,1,4.44-17.22l.19-.2,34,2.66.26-.3a5.54,5.54,0,0,0,4.78,3.48,5.27,5.27,0,0,0,5.92-4.49,4.6,4.6,0,0,0-.24-1.92l23.43-2.91c20.86-3.13,37.84-28.9,34.48-31C297.75,103.91,277,102.22,277,102.22Zm-74-85c0-3,22-10,22-10l1,10S203,20.22,203,17.22ZM113.81,190.86l-.2-.19.78-2.07.17,2Zm.43,5.5.14-.47.1,0,.09.54ZM118,184.22v.63l-.22-.18Zm-1-1V184l-.28-.23Zm0,3v0l0-.05,1-.31v.67l-1.45-.21Zm.21,6.76.55-.22,0,.61-.88-.06Zm-1.74-3.43.06.71-.4.15Zm-.16,7.93.38-.34.06.37Zm1.48-4.34v.16l-.35,0Zm-.06,5.44.17-.23,0,.25Zm.65-4.24.5-.2,0,.21.1,0Zm1.62-6.62-1.6-.23,1.6-.53Zm0-1-.39-.06.39-.39ZM220.91,84.1l.09.12s13.83-8.94,16.27-11.59l.69-.49c.67.87,2,3.08,2,3.08l2.58,5.17-1.58,1V94.22l-16.68,9.56c-4.09-6.58-7.63-12.3-9.53-15.38Zm-6.29,4.42c1.85,3.25,5.39,8.92,9.5,15.38l-2.69,1.54-8.24-15.92Zm-93.85,107-1.46-.1.59-.52,2.1.63,20.77,23.07-.07.14-19.38-18.71-1.09-3.4-2-.14,1.07-.93Zm-.77-7.72-.52-.08.52-.52Zm22.13,27.1-19.2-21.32-.85-3.47-2-.28.51-.38,3.37,1.35,18.11,24Zm-14.24-26.77,8.2,15.41-11-14.61-.43-2.73Zm-3.59-2.78-1.72-.4.86-.54-.06.38,1.14-.83Zm-.61-2.54-.21,1.32-.22-.05-1.43-.33.78-.49-.06.38Zm-1.46-1,.79-1.11-.36,2.23-2.55-.59,1.7-.41-.09.59.49-.68.07,0Zm-.82-1.12.35-.08-.18-.17.61-.88-.35,2.16-1-.23Zm-.9.2.23.57-1.38-.32Zm-.51,7.26v.68l-.75-.11Zm20.54,34.39-21.22-20.49-.25-.77,3.46.78,19.14,18.49Zm35.46-91v-9.27L174,117l33.55-23.54c.79.93,1.29,1.53,1.43,1.71a10.28,10.28,0,0,0-1.22-1.86l1.36-.95L210.28,94l.08.14c0-.13-.08-.23-.1-.31a7.45,7.45,0,0,0-.9-1.58l3.7-2.6c1.61,3.45,4.6,9.37,8,16Zm63.37,13.56a4.82,4.82,0,0,0,.14,1.57l-33.68-2.38,23.09-23.56c6.11,11.66,11.51,21.82,11.51,21.82h0A4.61,4.61,0,0,0,239.37,145.05Zm10.34-1.77a5.28,5.28,0,0,0-1.25-1.46h0c-.07-.43-7.58-11.92-15.65-24.4,7.43,11.9,14.39,22.93,15.49,24.28a6,6,0,0,0-3-1.14,5.66,5.66,0,0,0-4.75,1.8L229.18,120.4l3.35-3.41.28.42-.27-.43,12-12.28.42,2.52,3.74,10.44s5.26.56,15.26-4.44,22.14-4.36,22.14-4.36S276.78,135,275.2,136.08ZM298,112.22s-2,9-1.78,11.5S281,135.22,281,135.22l10-23s7-5.73,7-1.87Z"/><path class="cls-2" d="M209,95.18s0,0,0,0S209,95.24,209,95.18Z"/></g></g></g></svg>